{"title":"We.Bought.A.Zoo.2011.DVDRip.XviD.AC3-GBR","uid":7112746,"size":1352679519,"categoryP":"video","categoryS":"movies","magnet":"?xt=urn:btih:86edae8327e7b5805d14d5285a465744d5b0b0f1&amp;dn=We.Bought.A.Zoo.2011.DVDRip.XviD.AC3-GBR&amp;tr=udp%3A%2F%2Ftracker.openbittorrent.com%3A80&amp;tr=udp%3A%2F%2Fopen.demonii.com%3A1337&amp;tr=udp%3A%2F%2Ftracker.coppersurfer.tk%3A6969&amp;tr=udp%3A%2F%2Fexodus.desync.com%3A6969","seeders":0,"leechers":0,"uploader":"TvTeam","files":4,"time":1332116993,"description":". \n &lt;a href=&quot;\nhttp://www.torrenting.com&quot; rel=&quot;nofollow&quot; target=&quot;_NEW&quot;&gt;\nhttp://www.torrenting.com&lt;/a&gt;          :     Once &amp; For all ;)\n\n\n               www . Torrenting . Com \n\n(((((((((((((= Enjoy No RAR releases =))))))))))))))))))))\n\n\n...................................NFO:....................................\n\n.[IMG]http://i.imgur.com/9PAGO.jpg[/IMG]\n &lt;a href=&quot;\nhttp://www.imdb.com/title/tt1389137/&quot; rel=&quot;nofollow&quot; target=&quot;_NEW&quot;&gt;\nhttp://www.imdb.com/title/tt1389137/&lt;/a&gt;\n\n\nSet in Southern California, a father moves his young family to the countryside to renovate and re-open a struggling zoo. \n\n\nGeneral\nComplete name                            : C:UsersrootDesktopWe.Bought.A.Zoo.2011.DVDRip.XviD.AC3-GBR.avi\nFormat                                   : AVI\nFormat/Info                              : Audio Video Interleave\nFile size                                : 1.26 GiB\nDuration                                 : 2h 3mn\nOverall bit rate                         : 1 456 Kbps\nWriting application                      : VirtualDubMod 1.5.10.2 (build 2540/release)\nWriting library                          : VirtualDubMod build 2540/release\n\nVideo\nID                                       : 0\nFormat                                   : MPEG-4 Visual\nFormat profile                           : Advanced Simple@L5\nFormat settings, BVOP                    : 1\nFormat settings, QPel                    : No\nFormat settings, GMC                     : No warppoints\nFormat settings, Matrix                  : Default (H.263)\nMuxing mode                              : Packed bitstream\nCodec ID                                 : XVID\nCodec ID/Hint                            : XviD\nDuration                                 : 2h 3mn\nBit rate                                 : 999 Kbps\nWidth                                    : 720 pixels\nHeight                                   : 384 pixels\nDisplay aspect ratio                     : 1.875\nFrame rate                               : 23.976 fps\nColor space                              : YUV\nChroma subsampling                       : 4:2:0\nBit depth                                : 8 bits\nScan type                                : Progressive\nCompression mode                         : Lossy\nBits/(Pixel*Frame)                       : 0.151\nStream size                              : 885 MiB (69%)\nWriting library                          : XviD 1.2.1 (UTC 2008-12-04)\n\nAudio\nID                                       : 1\nFormat                                   : AC-3\nFormat/Info                              : Audio Coding 3\nMode extension                           : CM (complete main)\nCodec ID                                 : 2000\nDuration                                 : 2h 3mn\nBit rate mode                            : Constant\nBit rate                                 : 448 Kbps\nChannel(s)                               : 6 channels\nChannel positions                        : Front: L C R, Side: L R, LFE\nSampling rate                            : 48.0 KHz\nBit depth                                : 16 bits\nCompression mode                         : Lossy\nStream size                              : 397 MiB (31%)\nAlignment                                : Split accross interleaves\nInterleave, duration                     : 42 ms (1.00 video frame)\nInterleave, preload duration             : 500 ms\n\nSource We Bought A Zoo DVDR-MPTDVD-thanks\n\n\n[IMG]http://i.imgur.com/2ZP2X.png[/IMG]\n[IMG]http://i.imgur.com/MLdTp.png[/IMG]\n[IMG]http://i.imgur.com/qNlWW.png[/IMG]\n[IMG]http://i.imgur.com/2abLJ.png[/IMG]","torrent":{"xt":"urn:btih:86edae8327e7b5805d14d5285a465744d5b0b0f1","amp;dn":"We.Bought.A.Zoo.2011.DVDRip.XviD.AC3-GBR","amp;tr":["udp%3A%2F%2Ftracker.openbittorrent.com%3A80","udp%3A%2F%2Fopen.demonii.com%3A1337","udp%3A%2F%2Ftracker.coppersurfer.tk%3A6969","udp%3A%2F%2Fexodus.desync.com%3A6969"],"infoHash":"86edae8327e7b5805d14d5285a465744d5b0b0f1","infoHashBuffer":{"type":"Buffer","data":[134,237,174,131,39,231,181,128,93,20,213,40,90,70,87,68,213,176,176,241]},"announce":[],"urlList":[]}}